<svg xmlns="http://www.w3.org/2000/svg" xmlns:xlink="http://www.w3.org/1999/xlink" width="1080" zoomAndPan="magnify" viewBox="0 0 810 809.999993" height="1080" preserveAspectRatio="xMidYMid meet" version="1.0"><defs><clipPath id="4cc398d79a"><path d="M 87.929688 94.859375 L 722.429688 94.859375 L 722.429688 729 L 87.929688 729 Z M 87.929688 94.859375 " clip-rule="nonzero"/></clipPath><clipPath id="2e2cac77c6"><path d="M 126.179688 94.859375 L 683.816406 94.859375 C 693.960938 94.859375 703.691406 98.886719 710.863281 106.0625 C 718.035156 113.234375 722.066406 122.964844 722.066406 133.109375 L 722.066406 690.746094 C 722.066406 700.890625 718.035156 710.617188 710.863281 717.792969 C 703.691406 724.964844 693.960938 728.996094 683.816406 728.996094 L 126.179688 728.996094 C 116.035156 728.996094 106.304688 724.964844 99.132812 717.792969 C 91.960938 710.617188 87.929688 700.890625 87.929688 690.746094 L 87.929688 133.109375 C 87.929688 122.964844 91.960938 113.234375 99.132812 106.0625 C 106.304688 98.886719 116.035156 94.859375 126.179688 94.859375 Z M 126.179688 94.859375 " clip-rule="nonzero"/></clipPath><clipPath id="f2b6918472"><path d="M 328.714844 54.820312 L 368.730469 54.820312 L 368.730469 146.890625 L 328.714844 146.890625 Z M 328.714844 54.820312 " clip-rule="nonzero"/></clipPath><clipPath id="a3c86cc406"><path d="M 339.964844 54.820312 L 357.480469 54.820312 C 363.695312 54.820312 368.730469 59.855469 368.730469 66.070312 L 368.730469 135.554688 C 368.730469 141.769531 363.695312 146.804688 357.480469 146.804688 L 339.964844 146.804688 C 333.75 146.804688 328.714844 141.769531 328.714844 135.554688 L 328.714844 66.070312 C 328.714844 59.855469 333.75 54.820312 339.964844 54.820312 Z M 339.964844 54.820312 " clip-rule="nonzero"/></clipPath><clipPath id="e320488821"><path d="M 441.269531 54.820312 L 481.285156 54.820312 L 481.285156 146.890625 L 441.269531 146.890625 Z M 441.269531 54.820312 " clip-rule="nonzero"/></clipPath><clipPath id="f53ec9457b"><path d="M 452.519531 54.820312 L 470.035156 54.820312 C 476.25 54.820312 481.285156 59.855469 481.285156 66.070312 L 481.285156 135.554688 C 481.285156 141.769531 476.25 146.804688 470.035156 146.804688 L 452.519531 146.804688 C 446.304688 146.804688 441.269531 141.769531 441.269531 135.554688 L 441.269531 66.070312 C 441.269531 59.855469 446.304688 54.820312 452.519531 54.820312 Z M 452.519531 54.820312 " clip-rule="nonzero"/></clipPath><clipPath id="3a6d621eca"><path d="M 554.230469 54.820312 L 594.25 54.820312 L 594.25 146.890625 L 554.230469 146.890625 Z M 554.230469 54.820312 " clip-rule="nonzero"/></clipPath><clipPath id="465c447aa9"><path d="M 565.480469 54.820312 L 583 54.820312 C 589.210938 54.820312 594.25 59.855469 594.25 66.070312 L 594.25 135.554688 C 594.25 141.769531 589.210938 146.804688 583 146.804688 L 565.480469 146.804688 C 559.269531 146.804688 554.230469 141.769531 554.230469 135.554688 L 554.230469 66.070312 C 554.230469 59.855469 559.269531 54.820312 565.480469 54.820312 Z M 565.480469 54.820312 " clip-rule="nonzero"/></clipPath><clipPath id="203f7bc295"><path d="M 215.75 54.820312 L 255.769531 54.820312 L 255.769531 146.890625 L 215.75 146.890625 Z M 215.75 54.820312 " clip-rule="nonzero"/></clipPath><clipPath id="b46c8d4703"><path d="M 227 54.820312 L 244.519531 54.820312 C 250.730469 54.820312 255.769531 59.855469 255.769531 66.070312 L 255.769531 135.554688 C 255.769531 141.769531 250.730469 146.804688 244.519531 146.804688 L 227 146.804688 C 220.789062 146.804688 215.75 141.769531 215.75 135.554688 L 215.75 66.070312 C 215.75 59.855469 220.789062 54.820312 227 54.820312 Z M 227 54.820312 " clip-rule="nonzero"/></clipPath><clipPath id="ed8e88c5c8"><path d="M 243.300781 243.152344 L 345.640625 243.152344 L 345.640625 345.496094 L 243.300781 345.496094 Z M 243.300781 243.152344 " clip-rule="nonzero"/></clipPath><clipPath id="549f0c0254"><path d="M 294.46875 243.152344 C 266.210938 243.152344 243.300781 266.0625 243.300781 294.324219 C 243.300781 322.585938 266.210938 345.496094 294.46875 345.496094 C 322.730469 345.496094 345.640625 322.585938 345.640625 294.324219 C 345.640625 266.0625 322.730469 243.152344 294.46875 243.152344 Z M 294.46875 243.152344 " clip-rule="nonzero"/></clipPath><clipPath id="fd8fd5f6b0"><path d="M 359.871094 580.886719 L 456.171875 580.886719 L 456.171875 677.183594 L 359.871094 677.183594 Z M 359.871094 580.886719 " clip-rule="nonzero"/></clipPath><clipPath id="1a6e1c8a56"><path d="M 449.910156 677.183594 L 366.136719 677.183594 C 362.683594 677.183594 359.871094 674.371094 359.871094 670.921875 L 359.871094 587.148438 C 359.871094 583.699219 362.683594 580.886719 366.136719 580.886719 L 449.910156 580.886719 C 453.359375 580.886719 456.171875 583.699219 456.171875 587.148438 L 456.171875 670.921875 C 456.171875 674.371094 453.359375 677.183594 449.910156 677.183594 Z M 449.910156 677.183594 " clip-rule="nonzero"/></clipPath><clipPath id="6e8715f54b"><path d="M 249.34375 580.886719 L 345.640625 580.886719 L 345.640625 677.183594 L 249.34375 677.183594 Z M 249.34375 580.886719 " clip-rule="nonzero"/></clipPath><clipPath id="817014415f"><path d="M 339.378906 677.183594 L 255.605469 677.183594 C 252.15625 677.183594 249.34375 674.371094 249.34375 670.921875 L 249.34375 587.148438 C 249.34375 583.699219 252.15625 580.886719 255.605469 580.886719 L 339.378906 580.886719 C 342.828125 580.886719 345.640625 583.699219 345.640625 587.148438 L 345.640625 670.921875 C 345.640625 674.371094 342.828125 677.183594 339.378906 677.183594 Z M 339.378906 677.183594 " clip-rule="nonzero"/></clipPath><clipPath id="c6f0767552"><path d="M 359.871094 470.632812 L 456.171875 470.632812 L 456.171875 566.929688 L 359.871094 566.929688 Z M 359.871094 470.632812 " clip-rule="nonzero"/></clipPath><clipPath id="8e7f56dbf7"><path d="M 449.910156 566.929688 L 366.136719 566.929688 C 362.683594 566.929688 359.871094 564.117188 359.871094 560.667969 L 359.871094 476.894531 C 359.871094 473.441406 362.683594 470.632812 366.136719 470.632812 L 449.910156 470.632812 C 453.359375 470.632812 456.171875 473.441406 456.171875 476.894531 L 456.171875 560.667969 C 456.171875 564.117188 453.359375 566.929688 449.910156 566.929688 Z M 449.910156 566.929688 " clip-rule="nonzero"/></clipPath><clipPath id="52c217b8cb"><path d="M 249.34375 470.632812 L 345.640625 470.632812 L 345.640625 566.929688 L 249.34375 566.929688 Z M 249.34375 470.632812 " clip-rule="nonzero"/></clipPath><clipPath id="33f3445871"><path d="M 339.378906 566.929688 L 255.605469 566.929688 C 252.15625 566.929688 249.34375 564.117188 249.34375 560.667969 L 249.34375 476.894531 C 249.34375 473.441406 252.15625 470.632812 255.605469 470.632812 L 339.378906 470.632812 C 342.828125 470.632812 345.640625 473.441406 345.640625 476.894531 L 345.640625 560.667969 C 345.640625 564.117188 342.828125 566.929688 339.378906 566.929688 Z M 339.378906 566.929688 " clip-rule="nonzero"/></clipPath><clipPath id="2f1b154fb7"><path d="M 359.871094 359.808594 L 456.171875 359.808594 L 456.171875 456.105469 L 359.871094 456.105469 Z M 359.871094 359.808594 " clip-rule="nonzero"/></clipPath><clipPath id="53e9de82be"><path d="M 449.910156 456.105469 L 366.136719 456.105469 C 362.683594 456.105469 359.871094 453.296875 359.871094 449.84375 L 359.871094 366.070312 C 359.871094 362.621094 362.683594 359.808594 366.136719 359.808594 L 449.910156 359.808594 C 453.359375 359.808594 456.171875 362.621094 456.171875 366.070312 L 456.171875 449.84375 C 456.171875 453.296875 453.359375 456.105469 449.910156 456.105469 Z M 449.910156 456.105469 " clip-rule="nonzero"/></clipPath><clipPath id="5fe360c60a"><path d="M 249.34375 359.808594 L 345.640625 359.808594 L 345.640625 456.105469 L 249.34375 456.105469 Z M 249.34375 359.808594 " clip-rule="nonzero"/></clipPath><clipPath id="5b3eb5ef85"><path d="M 339.378906 456.105469 L 255.605469 456.105469 C 252.15625 456.105469 249.34375 453.296875 249.34375 449.84375 L 249.34375 366.070312 C 249.34375 362.621094 252.15625 359.808594 255.605469 359.808594 L 339.378906 359.808594 C 342.828125 359.808594 345.640625 362.621094 345.640625 366.070312 L 345.640625 449.84375 C 345.640625 453.296875 342.828125 456.105469 339.378906 456.105469 Z M 339.378906 456.105469 " clip-rule="nonzero"/></clipPath><clipPath id="7eed032945"><path d="M 470.402344 249.195312 L 566.699219 249.195312 L 566.699219 345.496094 L 470.402344 345.496094 Z M 470.402344 249.195312 " clip-rule="nonzero"/></clipPath><clipPath id="c6aed5840d"><path d="M 560.4375 345.496094 L 476.664062 345.496094 C 473.214844 345.496094 470.402344 342.683594 470.402344 339.234375 L 470.402344 255.460938 C 470.402344 252.007812 473.214844 249.195312 476.664062 249.195312 L 560.4375 249.195312 C 563.890625 249.195312 566.699219 252.007812 566.699219 255.460938 L 566.699219 339.234375 C 566.699219 342.683594 563.890625 345.496094 560.4375 345.496094 Z M 560.4375 345.496094 " clip-rule="nonzero"/></clipPath><clipPath id="6a5681faae"><path d="M 359.871094 249.195312 L 456.171875 249.195312 L 456.171875 345.496094 L 359.871094 345.496094 Z M 359.871094 249.195312 " clip-rule="nonzero"/></clipPath><clipPath id="93275406c3"><path d="M 449.910156 345.496094 L 366.136719 345.496094 C 362.683594 345.496094 359.871094 342.683594 359.871094 339.234375 L 359.871094 255.460938 C 359.871094 252.007812 362.683594 249.195312 366.136719 249.195312 L 449.910156 249.195312 C 453.359375 249.195312 456.171875 252.007812 456.171875 255.460938 L 456.171875 339.234375 C 456.171875 342.683594 453.359375 345.496094 449.910156 345.496094 Z M 449.910156 345.496094 " clip-rule="nonzero"/></clipPath><clipPath id="8708c40053"><path d="M 470.402344 470.632812 L 566.699219 470.632812 L 566.699219 566.929688 L 470.402344 566.929688 Z M 470.402344 470.632812 " clip-rule="nonzero"/></clipPath><clipPath id="b63c78f463"><path d="M 560.4375 566.929688 L 476.664062 566.929688 C 473.214844 566.929688 470.402344 564.117188 470.402344 560.667969 L 470.402344 476.894531 C 470.402344 473.441406 473.214844 470.632812 476.664062 470.632812 L 560.4375 470.632812 C 563.890625 470.632812 566.699219 473.441406 566.699219 476.894531 L 566.699219 560.667969 C 566.699219 564.117188 563.890625 566.929688 560.4375 566.929688 Z M 560.4375 566.929688 " clip-rule="nonzero"/></clipPath></defs><g clip-path="url(#4cc398d79a)"><g clip-path="url(#2e2cac77c6)"><path stroke-linecap="butt" transform="matrix(0.75, 0, 0, 0.75, 87.929171, 94.858374)" fill="none" stroke-linejoin="miter" d="M 51.000694 0.00133516 L 794.516404 0.00133516 C 808.042448 0.00133516 821.016407 5.371127 830.578909 14.938837 C 840.14141 24.501338 845.51641 37.475298 845.51641 51.001341 L 845.51641 794.517051 C 845.51641 808.043094 840.14141 821.011846 830.578909 830.579555 C 821.016407 840.142056 808.042448 845.517057 794.516404 845.517057 L 51.000694 845.517057 C 37.474651 845.517057 24.500691 840.142056 14.93819 830.579555 C 5.375689 821.011846 0.000688565 808.043094 0.000688565 794.517051 L 0.000688565 51.001341 C 0.000688565 37.475298 5.375689 24.501338 14.93819 14.938837 C 24.500691 5.371127 37.474651 0.00133516 51.000694 0.00133516 Z M 51.000694 0.00133516 " stroke="#ffffff" stroke-width="80" stroke-opacity="1" stroke-miterlimit="4"/></g></g><path stroke-linecap="butt" transform="matrix(0.75, -0.000000000000000186, 0.000000000000000186, 0.75, 98.776383, 185.979035)" fill="none" stroke-linejoin="miter" d="M 0.00128056 12.001913 L 816.595072 12.001913 " stroke="#ffffff" stroke-width="24" stroke-opacity="1" stroke-miterlimit="4"/><g clip-path="url(#f2b6918472)"><g clip-path="url(#a3c86cc406)"><path fill="#ffffff" d="M 328.714844 54.820312 L 368.730469 54.820312 L 368.730469 146.734375 L 328.714844 146.734375 Z M 328.714844 54.820312 " fill-opacity="1" fill-rule="nonzero"/></g></g><g clip-path="url(#e320488821)"><g clip-path="url(#f53ec9457b)"><path fill="#ffffff" d="M 441.269531 54.820312 L 481.285156 54.820312 L 481.285156 146.734375 L 441.269531 146.734375 Z M 441.269531 54.820312 " fill-opacity="1" fill-rule="nonzero"/></g></g><g clip-path="url(#3a6d621eca)"><g clip-path="url(#465c447aa9)"><path fill="#ffffff" d="M 554.230469 54.820312 L 594.25 54.820312 L 594.25 146.734375 L 554.230469 146.734375 Z M 554.230469 54.820312 " fill-opacity="1" fill-rule="nonzero"/></g></g><g clip-path="url(#203f7bc295)"><g clip-path="url(#b46c8d4703)"><path fill="#ffffff" d="M 215.75 54.820312 L 255.769531 54.820312 L 255.769531 146.734375 L 215.75 146.734375 Z M 215.75 54.820312 " fill-opacity="1" fill-rule="nonzero"/></g></g><g clip-path="url(#ed8e88c5c8)"><g clip-path="url(#549f0c0254)"><path fill="#ffffff" d="M 243.300781 243.152344 L 345.640625 243.152344 L 345.640625 345.496094 L 243.300781 345.496094 Z M 243.300781 243.152344 " fill-opacity="1" fill-rule="nonzero"/></g></g><g clip-path="url(#fd8fd5f6b0)"><g clip-path="url(#1a6e1c8a56)"><path fill="#ffffff" d="M 359.871094 580.886719 L 456.171875 580.886719 L 456.171875 677.183594 L 359.871094 677.183594 Z M 359.871094 580.886719 " fill-opacity="1" fill-rule="nonzero"/></g></g><g clip-path="url(#6e8715f54b)"><g clip-path="url(#817014415f)"><path fill="#ffffff" d="M 249.34375 580.886719 L 345.640625 580.886719 L 345.640625 677.183594 L 249.34375 677.183594 Z M 249.34375 580.886719 " fill-opacity="1" fill-rule="nonzero"/></g></g><g clip-path="url(#c6f0767552)"><g clip-path="url(#8e7f56dbf7)"><path fill="#ffffff" d="M 359.871094 470.632812 L 456.171875 470.632812 L 456.171875 566.929688 L 359.871094 566.929688 Z M 359.871094 470.632812 " fill-opacity="1" fill-rule="nonzero"/></g></g><g clip-path="url(#52c217b8cb)"><g clip-path="url(#33f3445871)"><path fill="#ffffff" d="M 249.34375 470.632812 L 345.640625 470.632812 L 345.640625 566.929688 L 249.34375 566.929688 Z M 249.34375 470.632812 " fill-opacity="1" fill-rule="nonzero"/></g></g><g clip-path="url(#2f1b154fb7)"><g clip-path="url(#53e9de82be)"><path fill="#ffffff" d="M 359.871094 359.808594 L 456.171875 359.808594 L 456.171875 456.105469 L 359.871094 456.105469 Z M 359.871094 359.808594 " fill-opacity="1" fill-rule="nonzero"/></g></g><g clip-path="url(#5fe360c60a)"><g clip-path="url(#5b3eb5ef85)"><path fill="#ffffff" d="M 249.34375 359.808594 L 345.640625 359.808594 L 345.640625 456.105469 L 249.34375 456.105469 Z M 249.34375 359.808594 " fill-opacity="1" fill-rule="nonzero"/></g></g><g clip-path="url(#7eed032945)"><g clip-path="url(#c6aed5840d)"><path fill="#ffffff" d="M 470.402344 249.195312 L 566.699219 249.195312 L 566.699219 345.496094 L 470.402344 345.496094 Z M 470.402344 249.195312 " fill-opacity="1" fill-rule="nonzero"/></g></g><g clip-path="url(#6a5681faae)"><g clip-path="url(#93275406c3)"><path fill="#ffffff" d="M 359.871094 249.195312 L 456.171875 249.195312 L 456.171875 345.496094 L 359.871094 345.496094 Z M 359.871094 249.195312 " fill-opacity="1" fill-rule="nonzero"/></g></g><g clip-path="url(#8708c40053)"><g clip-path="url(#b63c78f463)"><path fill="#ffffff" d="M 470.402344 470.632812 L 566.699219 470.632812 L 566.699219 566.929688 L 470.402344 566.929688 Z M 470.402344 470.632812 " fill-opacity="1" fill-rule="nonzero"/></g></g></svg>