<svg xmlns="http://www.w3.org/2000/svg" xmlns:xlink="http://www.w3.org/1999/xlink" width="1080" zoomAndPan="magnify" viewBox="0 0 810 809.999993" height="1080" preserveAspectRatio="xMidYMid meet" version="1.0"><defs><g/><clipPath id="41bca34c85"><path d="M 543.144531 201.058594 L 613.613281 201.058594 L 613.613281 271.527344 L 543.144531 271.527344 Z M 543.144531 201.058594 " clip-rule="nonzero"/></clipPath><clipPath id="6a3d5948ce"><path d="M 578.378906 201.058594 C 558.917969 201.058594 543.144531 216.832031 543.144531 236.292969 C 543.144531 255.753906 558.917969 271.527344 578.378906 271.527344 C 597.835938 271.527344 613.613281 255.753906 613.613281 236.292969 C 613.613281 216.832031 597.835938 201.058594 578.378906 201.058594 Z M 578.378906 201.058594 " clip-rule="nonzero"/></clipPath><clipPath id="daf1e0b7a9"><path d="M 623.414062 433.613281 L 689.722656 433.613281 L 689.722656 499.917969 L 623.414062 499.917969 Z M 623.414062 433.613281 " clip-rule="nonzero"/></clipPath><clipPath id="c8a8f896b9"><path d="M 685.410156 499.917969 L 627.726562 499.917969 C 625.347656 499.917969 623.414062 497.984375 623.414062 495.605469 L 623.414062 437.921875 C 623.414062 435.546875 625.347656 433.613281 627.726562 433.613281 L 685.410156 433.613281 C 687.785156 433.613281 689.722656 435.546875 689.722656 437.921875 L 689.722656 495.605469 C 689.722656 497.984375 687.785156 499.917969 685.410156 499.917969 Z M 685.410156 499.917969 " clip-rule="nonzero"/></clipPath><clipPath id="8e233a20c0"><path d="M 547.304688 433.613281 L 613.613281 433.613281 L 613.613281 499.917969 L 547.304688 499.917969 Z M 547.304688 433.613281 " clip-rule="nonzero"/></clipPath><clipPath id="18ab3ea0d2"><path d="M 609.300781 499.917969 L 551.617188 499.917969 C 549.242188 499.917969 547.304688 497.984375 547.304688 495.605469 L 547.304688 437.921875 C 547.304688 435.546875 549.242188 433.613281 551.617188 433.613281 L 609.300781 433.613281 C 611.675781 433.613281 613.613281 435.546875 613.613281 437.921875 L 613.613281 495.605469 C 613.613281 497.984375 611.675781 499.917969 609.300781 499.917969 Z M 609.300781 499.917969 " clip-rule="nonzero"/></clipPath><clipPath id="3027270112"><path d="M 623.414062 357.691406 L 689.722656 357.691406 L 689.722656 424 L 623.414062 424 Z M 623.414062 357.691406 " clip-rule="nonzero"/></clipPath><clipPath id="5a48cb042b"><path d="M 685.410156 424 L 627.726562 424 C 625.347656 424 623.414062 422.066406 623.414062 419.6875 L 623.414062 362.003906 C 623.414062 359.628906 625.347656 357.691406 627.726562 357.691406 L 685.410156 357.691406 C 687.785156 357.691406 689.722656 359.628906 689.722656 362.003906 L 689.722656 419.6875 C 689.722656 422.066406 687.785156 424 685.410156 424 Z M 685.410156 424 " clip-rule="nonzero"/></clipPath><clipPath id="b013df9a28"><path d="M 547.304688 357.691406 L 613.613281 357.691406 L 613.613281 424 L 547.304688 424 Z M 547.304688 357.691406 " clip-rule="nonzero"/></clipPath><clipPath id="c17193d40a"><path d="M 609.300781 424 L 551.617188 424 C 549.242188 424 547.304688 422.066406 547.304688 419.6875 L 547.304688 362.003906 C 547.304688 359.628906 549.242188 357.691406 551.617188 357.691406 L 609.300781 357.691406 C 611.675781 357.691406 613.613281 359.628906 613.613281 362.003906 L 613.613281 419.6875 C 613.613281 422.066406 611.675781 424 609.300781 424 Z M 609.300781 424 " clip-rule="nonzero"/></clipPath><clipPath id="5d8f599624"><path d="M 623.414062 281.382812 L 689.722656 281.382812 L 689.722656 347.691406 L 623.414062 347.691406 Z M 623.414062 281.382812 " clip-rule="nonzero"/></clipPath><clipPath id="ed9a39aa5e"><path d="M 685.410156 347.691406 L 627.726562 347.691406 C 625.347656 347.691406 623.414062 345.757812 623.414062 343.378906 L 623.414062 285.695312 C 623.414062 283.320312 625.347656 281.382812 627.726562 281.382812 L 685.410156 281.382812 C 687.785156 281.382812 689.722656 283.320312 689.722656 285.695312 L 689.722656 343.378906 C 689.722656 345.757812 687.785156 347.691406 685.410156 347.691406 Z M 685.410156 347.691406 " clip-rule="nonzero"/></clipPath><clipPath id="f723133d93"><path d="M 547.304688 281.382812 L 613.613281 281.382812 L 613.613281 347.691406 L 547.304688 347.691406 Z M 547.304688 281.382812 " clip-rule="nonzero"/></clipPath><clipPath id="b722e9eb66"><path d="M 609.300781 347.691406 L 551.617188 347.691406 C 549.242188 347.691406 547.304688 345.757812 547.304688 343.378906 L 547.304688 285.695312 C 547.304688 283.320312 549.242188 281.382812 551.617188 281.382812 L 609.300781 281.382812 C 611.675781 281.382812 613.613281 283.320312 613.613281 285.695312 L 613.613281 343.378906 C 613.613281 345.757812 611.675781 347.691406 609.300781 347.691406 Z M 609.300781 347.691406 " clip-rule="nonzero"/></clipPath><clipPath id="742f399174"><path d="M 699.519531 205.21875 L 765.828125 205.21875 L 765.828125 271.527344 L 699.519531 271.527344 Z M 699.519531 205.21875 " clip-rule="nonzero"/></clipPath><clipPath id="c92eea61e1"><path d="M 761.515625 271.527344 L 703.832031 271.527344 C 701.457031 271.527344 699.519531 269.589844 699.519531 267.214844 L 699.519531 209.53125 C 699.519531 207.15625 701.457031 205.21875 703.832031 205.21875 L 761.515625 205.21875 C 763.890625 205.21875 765.828125 207.15625 765.828125 209.53125 L 765.828125 267.214844 C 765.828125 269.589844 763.890625 271.527344 761.515625 271.527344 Z M 761.515625 271.527344 " clip-rule="nonzero"/></clipPath><clipPath id="89d51940f1"><path d="M 623.414062 205.21875 L 689.722656 205.21875 L 689.722656 271.527344 L 623.414062 271.527344 Z M 623.414062 205.21875 " clip-rule="nonzero"/></clipPath><clipPath id="c17ad29b70"><path d="M 685.410156 271.527344 L 627.726562 271.527344 C 625.347656 271.527344 623.414062 269.589844 623.414062 267.214844 L 623.414062 209.53125 C 623.414062 207.15625 625.347656 205.21875 627.726562 205.21875 L 685.410156 205.21875 C 687.785156 205.21875 689.722656 207.15625 689.722656 209.53125 L 689.722656 267.214844 C 689.722656 269.589844 687.785156 271.527344 685.410156 271.527344 Z M 685.410156 271.527344 " clip-rule="nonzero"/></clipPath><clipPath id="4492a54ea0"><path d="M 699.519531 357.691406 L 765.828125 357.691406 L 765.828125 424 L 699.519531 424 Z M 699.519531 357.691406 " clip-rule="nonzero"/></clipPath><clipPath id="0bda375b5a"><path d="M 761.515625 424 L 703.832031 424 C 701.457031 424 699.519531 422.066406 699.519531 419.6875 L 699.519531 362.003906 C 699.519531 359.628906 701.457031 357.691406 703.832031 357.691406 L 761.515625 357.691406 C 763.890625 357.691406 765.828125 359.628906 765.828125 362.003906 L 765.828125 419.6875 C 765.828125 422.066406 763.890625 424 761.515625 424 Z M 761.515625 424 " clip-rule="nonzero"/></clipPath></defs><g fill="#373435" fill-opacity="1"><g transform="translate(7.387518, 501.042608)"><g><path d="M 206.578125 0 L 37.046875 0 L 37.046875 -294.359375 L 206.578125 -294.359375 L 206.578125 -243.21875 L 99.46875 -243.21875 L 99.46875 -178.59375 L 199.125 -178.59375 L 199.125 -127.453125 L 99.46875 -127.453125 L 99.46875 -51.546875 L 206.578125 -51.546875 Z M 206.578125 0 "/></g></g><g transform="translate(238.321624, 501.042608)"><g><path d="M 204.96875 -294.359375 L 267.984375 -294.359375 L 167.921875 0 L 99.859375 0 L 0 -294.359375 L 63.015625 -294.359375 L 118.390625 -119.1875 C 121.472656 -108.851562 124.660156 -96.804688 127.953125 -83.046875 C 131.242188 -69.296875 133.289062 -59.734375 134.09375 -54.359375 C 135.570312 -66.710938 140.601562 -88.320312 149.1875 -119.1875 Z M 204.96875 -294.359375 "/></g></g></g><g fill="#373435" fill-opacity="1"><g transform="translate(506.332808, 501.042608)"><g/></g></g><g clip-path="url(#41bca34c85)"><g clip-path="url(#6a3d5948ce)"><path fill="#373435" d="M 543.144531 201.058594 L 613.613281 201.058594 L 613.613281 271.527344 L 543.144531 271.527344 Z M 543.144531 201.058594 " fill-opacity="1" fill-rule="nonzero"/></g></g><g clip-path="url(#daf1e0b7a9)"><g clip-path="url(#c8a8f896b9)"><path fill="#373435" d="M 623.414062 433.613281 L 689.722656 433.613281 L 689.722656 499.917969 L 623.414062 499.917969 Z M 623.414062 433.613281 " fill-opacity="1" fill-rule="nonzero"/></g></g><g clip-path="url(#8e233a20c0)"><g clip-path="url(#18ab3ea0d2)"><path fill="#373435" d="M 547.304688 433.613281 L 613.613281 433.613281 L 613.613281 499.917969 L 547.304688 499.917969 Z M 547.304688 433.613281 " fill-opacity="1" fill-rule="nonzero"/></g></g><g clip-path="url(#3027270112)"><g clip-path="url(#5a48cb042b)"><path fill="#373435" d="M 623.414062 357.691406 L 689.722656 357.691406 L 689.722656 424 L 623.414062 424 Z M 623.414062 357.691406 " fill-opacity="1" fill-rule="nonzero"/></g></g><g clip-path="url(#b013df9a28)"><g clip-path="url(#c17193d40a)"><path fill="#373435" d="M 547.304688 357.691406 L 613.613281 357.691406 L 613.613281 424 L 547.304688 424 Z M 547.304688 357.691406 " fill-opacity="1" fill-rule="nonzero"/></g></g><g clip-path="url(#5d8f599624)"><g clip-path="url(#ed9a39aa5e)"><path fill="#373435" d="M 623.414062 281.382812 L 689.722656 281.382812 L 689.722656 347.691406 L 623.414062 347.691406 Z M 623.414062 281.382812 " fill-opacity="1" fill-rule="nonzero"/></g></g><g clip-path="url(#f723133d93)"><g clip-path="url(#b722e9eb66)"><path fill="#373435" d="M 547.304688 281.382812 L 613.613281 281.382812 L 613.613281 347.691406 L 547.304688 347.691406 Z M 547.304688 281.382812 " fill-opacity="1" fill-rule="nonzero"/></g></g><g clip-path="url(#742f399174)"><g clip-path="url(#c92eea61e1)"><path fill="#373435" d="M 699.519531 205.21875 L 765.828125 205.21875 L 765.828125 271.527344 L 699.519531 271.527344 Z M 699.519531 205.21875 " fill-opacity="1" fill-rule="nonzero"/></g></g><g clip-path="url(#89d51940f1)"><g clip-path="url(#c17ad29b70)"><path fill="#373435" d="M 623.414062 205.21875 L 689.722656 205.21875 L 689.722656 271.527344 L 623.414062 271.527344 Z M 623.414062 205.21875 " fill-opacity="1" fill-rule="nonzero"/></g></g><g clip-path="url(#4492a54ea0)"><g clip-path="url(#0bda375b5a)"><path fill="#373435" d="M 699.519531 357.691406 L 765.828125 357.691406 L 765.828125 424 L 699.519531 424 Z M 699.519531 357.691406 " fill-opacity="1" fill-rule="nonzero"/></g></g><g fill="#373435" fill-opacity="1"><g transform="translate(39.642845, 582.416564)"><g><path d="M 25.109375 1.03125 C 20.992188 1.03125 17.359375 0.125 14.203125 -1.6875 C 11.046875 -3.507812 8.570312 -6.050781 6.78125 -9.3125 C 5 -12.570312 4.109375 -16.3125 4.109375 -20.53125 C 4.109375 -24.738281 5 -28.457031 6.78125 -31.6875 C 8.570312 -34.925781 11.0625 -37.453125 14.25 -39.265625 C 17.4375 -41.085938 21.082031 -42 25.1875 -42 C 29.550781 -42 33.335938 -40.972656 36.546875 -38.921875 C 39.753906 -36.867188 42.210938 -34.035156 43.921875 -30.421875 C 45.640625 -26.816406 46.414062 -22.625 46.25 -17.84375 L 10.8125 -17.84375 C 11.34375 -14 12.894531 -10.929688 15.46875 -8.640625 C 18.050781 -6.347656 21.289062 -5.203125 25.1875 -5.203125 C 27.863281 -5.203125 30.304688 -5.78125 32.515625 -6.9375 C 34.734375 -8.101562 36.472656 -9.765625 37.734375 -11.921875 L 45.234375 -11.921875 C 43.597656 -7.921875 40.988281 -4.757812 37.40625 -2.4375 C 33.832031 -0.125 29.734375 1.03125 25.109375 1.03125 Z M 10.890625 -23.6875 L 39.625 -23.6875 C 38.9375 -27.414062 37.289062 -30.359375 34.6875 -32.515625 C 32.082031 -34.679688 28.914062 -35.765625 25.1875 -35.765625 C 21.394531 -35.765625 18.207031 -34.65625 15.625 -32.4375 C 13.050781 -30.226562 11.472656 -27.3125 10.890625 -23.6875 Z M 10.890625 -23.6875 "/></g></g></g><g fill="#373435" fill-opacity="1"><g transform="translate(89.830381, 582.416564)"><g><path d="M 19.1875 0 L 1.265625 -40.96875 L 8.453125 -40.96875 L 14.046875 -28.015625 L 22.421875 -8.84375 L 30.703125 -28.015625 L 36.390625 -40.96875 L 43.578125 -40.96875 L 25.578125 0 Z M 19.1875 0 "/></g></g></g><g fill="#373435" fill-opacity="1"><g transform="translate(134.651924, 582.416564)"><g><path d="M 25.109375 1.03125 C 20.992188 1.03125 17.359375 0.125 14.203125 -1.6875 C 11.046875 -3.507812 8.570312 -6.050781 6.78125 -9.3125 C 5 -12.570312 4.109375 -16.3125 4.109375 -20.53125 C 4.109375 -24.738281 5 -28.457031 6.78125 -31.6875 C 8.570312 -34.925781 11.0625 -37.453125 14.25 -39.265625 C 17.4375 -41.085938 21.082031 -42 25.1875 -42 C 29.550781 -42 33.335938 -40.972656 36.546875 -38.921875 C 39.753906 -36.867188 42.210938 -34.035156 43.921875 -30.421875 C 45.640625 -26.816406 46.414062 -22.625 46.25 -17.84375 L 10.8125 -17.84375 C 11.34375 -14 12.894531 -10.929688 15.46875 -8.640625 C 18.050781 -6.347656 21.289062 -5.203125 25.1875 -5.203125 C 27.863281 -5.203125 30.304688 -5.78125 32.515625 -6.9375 C 34.734375 -8.101562 36.472656 -9.765625 37.734375 -11.921875 L 45.234375 -11.921875 C 43.597656 -7.921875 40.988281 -4.757812 37.40625 -2.4375 C 33.832031 -0.125 29.734375 1.03125 25.109375 1.03125 Z M 10.890625 -23.6875 L 39.625 -23.6875 C 38.9375 -27.414062 37.289062 -30.359375 34.6875 -32.515625 C 32.082031 -34.679688 28.914062 -35.765625 25.1875 -35.765625 C 21.394531 -35.765625 18.207031 -34.65625 15.625 -32.4375 C 13.050781 -30.226562 11.472656 -27.3125 10.890625 -23.6875 Z M 10.890625 -23.6875 "/></g></g></g><g fill="#373435" fill-opacity="1"><g transform="translate(184.839461, 582.416564)"><g><path d="M 7.34375 0 L 7.34375 -40.96875 L 12.78125 -40.96875 L 13.5 -34.96875 C 15.289062 -37.4375 17.460938 -39.222656 20.015625 -40.328125 C 22.566406 -41.441406 25.207031 -42 27.9375 -42 C 33.414062 -42 37.679688 -40.257812 40.734375 -36.78125 C 43.785156 -33.3125 45.3125 -28.65625 45.3125 -22.8125 L 45.3125 0 L 38.671875 0 L 38.671875 -22.1875 C 38.671875 -26.34375 37.628906 -29.628906 35.546875 -32.046875 C 33.472656 -34.472656 30.648438 -35.6875 27.078125 -35.6875 C 24.546875 -35.6875 22.289062 -35.066406 20.3125 -33.828125 C 18.34375 -32.585938 16.789062 -30.835938 15.65625 -28.578125 C 14.53125 -26.316406 13.96875 -23.6875 13.96875 -20.6875 L 13.96875 0 Z M 7.34375 0 "/></g></g></g><g fill="#373435" fill-opacity="1"><g transform="translate(236.684134, 582.416564)"><g><path d="M 25.015625 0 C 20.492188 0 16.984375 -1.285156 14.484375 -3.859375 C 11.984375 -6.441406 10.734375 -10.078125 10.734375 -14.765625 L 10.734375 -34.890625 L 2.125 -34.890625 L 2.125 -40.96875 L 6.234375 -40.96875 C 8.128906 -40.96875 9.441406 -41.28125 10.171875 -41.90625 C 10.910156 -42.539062 11.390625 -43.78125 11.609375 -45.625 L 12.234375 -51.15625 L 17.359375 -51.15625 L 17.359375 -40.96875 L 30.625 -40.96875 L 30.625 -34.890625 L 17.359375 -34.890625 L 17.359375 -15.078125 C 17.359375 -9.285156 20.019531 -6.390625 25.34375 -6.390625 L 31.1875 -6.390625 L 31.1875 0 Z M 25.015625 0 "/></g></g></g><g fill="#373435" fill-opacity="1"><g transform="translate(271.720723, 582.416564)"><g><path d="M 25.8125 1.03125 C 21.550781 1.03125 17.785156 0.109375 14.515625 -1.734375 C 11.253906 -3.578125 8.703125 -6.128906 6.859375 -9.390625 C 5.023438 -12.648438 4.109375 -16.363281 4.109375 -20.53125 C 4.109375 -24.738281 5.023438 -28.445312 6.859375 -31.65625 C 8.703125 -34.863281 11.253906 -37.390625 14.515625 -39.234375 C 17.785156 -41.078125 21.550781 -42 25.8125 -42 C 30.070312 -42 33.832031 -41.078125 37.09375 -39.234375 C 40.363281 -37.390625 42.914062 -34.863281 44.75 -31.65625 C 46.59375 -28.445312 47.515625 -24.738281 47.515625 -20.53125 C 47.515625 -16.363281 46.59375 -12.648438 44.75 -9.390625 C 42.914062 -6.128906 40.363281 -3.578125 37.09375 -1.734375 C 33.832031 0.109375 30.070312 1.03125 25.8125 1.03125 Z M 10.734375 -20.53125 C 10.734375 -17.53125 11.378906 -14.882812 12.671875 -12.59375 C 13.960938 -10.300781 15.738281 -8.523438 18 -7.265625 C 20.257812 -6.003906 22.863281 -5.375 25.8125 -5.375 C 28.757812 -5.375 31.363281 -6.003906 33.625 -7.265625 C 35.882812 -8.523438 37.660156 -10.300781 38.953125 -12.59375 C 40.242188 -14.882812 40.890625 -17.53125 40.890625 -20.53125 C 40.890625 -23.519531 40.242188 -26.144531 38.953125 -28.40625 C 37.660156 -30.675781 35.882812 -32.457031 33.625 -33.75 C 31.363281 -35.039062 28.757812 -35.6875 25.8125 -35.6875 C 22.863281 -35.6875 20.257812 -35.039062 18 -33.75 C 15.738281 -32.457031 13.960938 -30.675781 12.671875 -28.40625 C 11.378906 -26.144531 10.734375 -23.519531 10.734375 -20.53125 Z M 10.734375 -20.53125 "/></g></g></g><g fill="#373435" fill-opacity="1"><g transform="translate(323.328624, 582.416564)"><g><path d="M 22.1875 1.03125 C 16.8125 1.03125 12.503906 -0.242188 9.265625 -2.796875 C 6.035156 -5.347656 4.367188 -8.703125 4.265625 -12.859375 L 10.8125 -12.859375 C 10.914062 -10.390625 11.96875 -8.441406 13.96875 -7.015625 C 15.96875 -5.597656 18.734375 -4.890625 22.265625 -4.890625 C 25.367188 -4.890625 27.8125 -5.425781 29.59375 -6.5 C 31.382812 -7.582031 32.28125 -9.046875 32.28125 -10.890625 C 32.28125 -12.734375 31.347656 -14.234375 29.484375 -15.390625 C 27.617188 -16.546875 24.6875 -17.46875 20.6875 -18.15625 C 15.414062 -19.050781 11.503906 -20.5 8.953125 -22.5 C 6.398438 -24.5 5.125 -27.101562 5.125 -30.3125 C 5.125 -34 6.53125 -36.867188 9.34375 -38.921875 C 12.164062 -40.972656 16.050781 -42 21 -42 C 26.050781 -42 30.085938 -40.878906 33.109375 -38.640625 C 36.140625 -36.398438 37.785156 -33.253906 38.046875 -29.203125 L 31.5 -29.203125 C 31.289062 -31.460938 30.273438 -33.1875 28.453125 -34.375 C 26.640625 -35.5625 24.179688 -36.15625 21.078125 -36.15625 C 18.128906 -36.15625 15.828125 -35.640625 14.171875 -34.609375 C 12.515625 -33.585938 11.6875 -32.15625 11.6875 -30.3125 C 11.6875 -28.570312 12.523438 -27.210938 14.203125 -26.234375 C 15.890625 -25.265625 18.863281 -24.359375 23.125 -23.515625 C 33.601562 -21.460938 38.84375 -17.203125 38.84375 -10.734375 C 38.84375 -7.210938 37.328125 -4.367188 34.296875 -2.203125 C 31.273438 -0.046875 27.238281 1.03125 22.1875 1.03125 Z M 22.1875 1.03125 "/></g></g></g><g fill="#373435" fill-opacity="1"><g transform="translate(366.414124, 582.416564)"><g/></g></g><g fill="#373435" fill-opacity="1"><g transform="translate(385.984086, 582.416564)"><g><path d="M 25.109375 1.03125 C 20.992188 1.03125 17.359375 0.125 14.203125 -1.6875 C 11.046875 -3.507812 8.570312 -6.050781 6.78125 -9.3125 C 5 -12.570312 4.109375 -16.3125 4.109375 -20.53125 C 4.109375 -24.738281 5 -28.457031 6.78125 -31.6875 C 8.570312 -34.925781 11.0625 -37.453125 14.25 -39.265625 C 17.4375 -41.085938 21.082031 -42 25.1875 -42 C 29.550781 -42 33.335938 -40.972656 36.546875 -38.921875 C 39.753906 -36.867188 42.210938 -34.035156 43.921875 -30.421875 C 45.640625 -26.816406 46.414062 -22.625 46.25 -17.84375 L 10.8125 -17.84375 C 11.34375 -14 12.894531 -10.929688 15.46875 -8.640625 C 18.050781 -6.347656 21.289062 -5.203125 25.1875 -5.203125 C 27.863281 -5.203125 30.304688 -5.78125 32.515625 -6.9375 C 34.734375 -8.101562 36.472656 -9.765625 37.734375 -11.921875 L 45.234375 -11.921875 C 43.597656 -7.921875 40.988281 -4.757812 37.40625 -2.4375 C 33.832031 -0.125 29.734375 1.03125 25.109375 1.03125 Z M 10.890625 -23.6875 L 39.625 -23.6875 C 38.9375 -27.414062 37.289062 -30.359375 34.6875 -32.515625 C 32.082031 -34.679688 28.914062 -35.765625 25.1875 -35.765625 C 21.394531 -35.765625 18.207031 -34.65625 15.625 -32.4375 C 13.050781 -30.226562 11.472656 -27.3125 10.890625 -23.6875 Z M 10.890625 -23.6875 "/></g></g></g><g fill="#373435" fill-opacity="1"><g transform="translate(436.171623, 582.416564)"><g/></g></g><g fill="#373435" fill-opacity="1"><g transform="translate(455.741585, 582.416564)"><g><path d="M 19.1875 0 L 1.265625 -40.96875 L 8.453125 -40.96875 L 14.046875 -28.015625 L 22.421875 -8.84375 L 30.703125 -28.015625 L 36.390625 -40.96875 L 43.578125 -40.96875 L 25.578125 0 Z M 19.1875 0 "/></g></g></g><g fill="#373435" fill-opacity="1"><g transform="translate(500.563128, 582.416564)"><g><path d="M 7.34375 0 L 7.34375 -40.96875 L 13.96875 -40.96875 L 13.96875 0 Z M 5.28125 -52.890625 C 5.28125 -54.410156 5.765625 -55.65625 6.734375 -56.625 C 7.710938 -57.601562 9.019531 -58.09375 10.65625 -58.09375 C 12.289062 -58.09375 13.582031 -57.601562 14.53125 -56.625 C 15.476562 -55.65625 15.953125 -54.410156 15.953125 -52.890625 C 15.953125 -51.410156 15.476562 -50.179688 14.53125 -49.203125 C 13.582031 -48.234375 12.289062 -47.75 10.65625 -47.75 C 9.019531 -47.75 7.710938 -48.234375 6.734375 -49.203125 C 5.765625 -50.179688 5.28125 -51.410156 5.28125 -52.890625 Z M 5.28125 -52.890625 "/></g></g></g><g fill="#373435" fill-opacity="1"><g transform="translate(521.869132, 582.416564)"><g><path d="M 20.765625 0.625 C 15.816406 0.625 11.945312 -0.488281 9.15625 -2.71875 C 6.363281 -4.957031 4.96875 -8 4.96875 -11.84375 C 4.96875 -15.570312 6.253906 -18.539062 8.828125 -20.75 C 11.410156 -22.96875 14.835938 -24.078125 19.109375 -24.078125 L 35.84375 -24.078125 L 35.84375 -25.578125 C 35.84375 -28.785156 34.84375 -31.296875 32.84375 -33.109375 C 30.84375 -34.929688 28.101562 -35.84375 24.625 -35.84375 C 22 -35.84375 19.710938 -35.25 17.765625 -34.0625 C 15.816406 -32.875 14.5 -31.28125 13.8125 -29.28125 L 7.109375 -29.28125 C 8.003906 -33.226562 10.015625 -36.332031 13.140625 -38.59375 C 16.273438 -40.863281 20.078125 -42 24.546875 -42 C 28.128906 -42 31.257812 -41.328125 33.9375 -39.984375 C 36.625 -38.640625 38.71875 -36.769531 40.21875 -34.375 C 41.71875 -31.976562 42.46875 -29.203125 42.46875 -26.046875 L 42.46875 0 L 37.015625 0 L 36.3125 -5.6875 C 32.570312 -1.476562 27.390625 0.625 20.765625 0.625 Z M 11.609375 -11.921875 C 11.609375 -9.921875 12.445312 -8.3125 14.125 -7.09375 C 15.8125 -5.882812 18.101562 -5.28125 21 -5.28125 C 23.84375 -5.28125 26.367188 -5.832031 28.578125 -6.9375 C 30.785156 -8.050781 32.546875 -9.582031 33.859375 -11.53125 C 35.179688 -13.476562 35.867188 -15.710938 35.921875 -18.234375 L 19.34375 -18.234375 C 17.082031 -18.234375 15.226562 -17.664062 13.78125 -16.53125 C 12.332031 -15.40625 11.609375 -13.867188 11.609375 -11.921875 Z M 11.609375 -11.921875 "/></g></g></g><g fill="#373435" fill-opacity="1"><g transform="translate(570.794064, 582.416564)"><g><path d="M 25.65625 16.8125 C 20.445312 16.8125 16.101562 15.535156 12.625 12.984375 C 9.15625 10.429688 7.050781 6.972656 6.3125 2.609375 L 13.03125 2.609375 C 13.65625 5.078125 15.070312 7.035156 17.28125 8.484375 C 19.5 9.929688 22.289062 10.65625 25.65625 10.65625 C 29.96875 10.65625 33.304688 9.492188 35.671875 7.171875 C 38.046875 4.859375 39.234375 1.597656 39.234375 -2.609375 L 39.234375 -6.46875 C 37.441406 -4.570312 35.28125 -3.082031 32.75 -2 C 30.226562 -0.925781 27.492188 -0.390625 24.546875 -0.390625 C 20.648438 -0.390625 17.160156 -1.296875 14.078125 -3.109375 C 11.003906 -4.929688 8.570312 -7.40625 6.78125 -10.53125 C 5 -13.664062 4.109375 -17.234375 4.109375 -21.234375 C 4.109375 -25.234375 5 -28.785156 6.78125 -31.890625 C 8.570312 -34.992188 11.003906 -37.453125 14.078125 -39.265625 C 17.160156 -41.085938 20.648438 -42 24.546875 -42 C 27.648438 -42 30.503906 -41.414062 33.109375 -40.25 C 35.710938 -39.09375 37.910156 -37.488281 39.703125 -35.4375 L 40.421875 -40.96875 L 45.859375 -40.96875 L 45.859375 -2.375 C 45.859375 1.46875 45.03125 4.835938 43.375 7.734375 C 41.71875 10.628906 39.375 12.863281 36.34375 14.4375 C 33.320312 16.019531 29.757812 16.8125 25.65625 16.8125 Z M 10.734375 -21.234375 C 10.734375 -18.441406 11.351562 -15.953125 12.59375 -13.765625 C 13.832031 -11.585938 15.554688 -9.894531 17.765625 -8.6875 C 19.972656 -7.476562 22.472656 -6.875 25.265625 -6.875 C 28.097656 -6.875 30.609375 -7.476562 32.796875 -8.6875 C 34.984375 -9.894531 36.691406 -11.585938 37.921875 -13.765625 C 39.160156 -15.953125 39.78125 -18.441406 39.78125 -21.234375 C 39.78125 -24.023438 39.160156 -26.5 37.921875 -28.65625 C 36.691406 -30.8125 34.984375 -32.503906 32.796875 -33.734375 C 30.609375 -34.972656 28.097656 -35.59375 25.265625 -35.59375 C 22.472656 -35.59375 19.972656 -34.972656 17.765625 -33.734375 C 15.554688 -32.503906 13.832031 -30.8125 12.59375 -28.65625 C 11.351562 -26.5 10.734375 -24.023438 10.734375 -21.234375 Z M 10.734375 -21.234375 "/></g></g></g><g fill="#373435" fill-opacity="1"><g transform="translate(623.980196, 582.416564)"><g><path d="M 25.109375 1.03125 C 20.992188 1.03125 17.359375 0.125 14.203125 -1.6875 C 11.046875 -3.507812 8.570312 -6.050781 6.78125 -9.3125 C 5 -12.570312 4.109375 -16.3125 4.109375 -20.53125 C 4.109375 -24.738281 5 -28.457031 6.78125 -31.6875 C 8.570312 -34.925781 11.0625 -37.453125 14.25 -39.265625 C 17.4375 -41.085938 21.082031 -42 25.1875 -42 C 29.550781 -42 33.335938 -40.972656 36.546875 -38.921875 C 39.753906 -36.867188 42.210938 -34.035156 43.921875 -30.421875 C 45.640625 -26.816406 46.414062 -22.625 46.25 -17.84375 L 10.8125 -17.84375 C 11.34375 -14 12.894531 -10.929688 15.46875 -8.640625 C 18.050781 -6.347656 21.289062 -5.203125 25.1875 -5.203125 C 27.863281 -5.203125 30.304688 -5.78125 32.515625 -6.9375 C 34.734375 -8.101562 36.472656 -9.765625 37.734375 -11.921875 L 45.234375 -11.921875 C 43.597656 -7.921875 40.988281 -4.757812 37.40625 -2.4375 C 33.832031 -0.125 29.734375 1.03125 25.109375 1.03125 Z M 10.890625 -23.6875 L 39.625 -23.6875 C 38.9375 -27.414062 37.289062 -30.359375 34.6875 -32.515625 C 32.082031 -34.679688 28.914062 -35.765625 25.1875 -35.765625 C 21.394531 -35.765625 18.207031 -34.65625 15.625 -32.4375 C 13.050781 -30.226562 11.472656 -27.3125 10.890625 -23.6875 Z M 10.890625 -23.6875 "/></g></g></g><g fill="#373435" fill-opacity="1"><g transform="translate(674.167733, 582.416564)"><g><path d="M 7.34375 0 L 7.34375 -40.96875 L 12.78125 -40.96875 L 13.5 -34.96875 C 15.289062 -37.4375 17.460938 -39.222656 20.015625 -40.328125 C 22.566406 -41.441406 25.207031 -42 27.9375 -42 C 33.414062 -42 37.679688 -40.257812 40.734375 -36.78125 C 43.785156 -33.3125 45.3125 -28.65625 45.3125 -22.8125 L 45.3125 0 L 38.671875 0 L 38.671875 -22.1875 C 38.671875 -26.34375 37.628906 -29.628906 35.546875 -32.046875 C 33.472656 -34.472656 30.648438 -35.6875 27.078125 -35.6875 C 24.546875 -35.6875 22.289062 -35.066406 20.3125 -33.828125 C 18.34375 -32.585938 16.789062 -30.835938 15.65625 -28.578125 C 14.53125 -26.316406 13.96875 -23.6875 13.96875 -20.6875 L 13.96875 0 Z M 7.34375 0 "/></g></g></g><g fill="#373435" fill-opacity="1"><g transform="translate(726.012406, 582.416564)"><g><path d="M 22.1875 1.03125 C 16.8125 1.03125 12.503906 -0.242188 9.265625 -2.796875 C 6.035156 -5.347656 4.367188 -8.703125 4.265625 -12.859375 L 10.8125 -12.859375 C 10.914062 -10.390625 11.96875 -8.441406 13.96875 -7.015625 C 15.96875 -5.597656 18.734375 -4.890625 22.265625 -4.890625 C 25.367188 -4.890625 27.8125 -5.425781 29.59375 -6.5 C 31.382812 -7.582031 32.28125 -9.046875 32.28125 -10.890625 C 32.28125 -12.734375 31.347656 -14.234375 29.484375 -15.390625 C 27.617188 -16.546875 24.6875 -17.46875 20.6875 -18.15625 C 15.414062 -19.050781 11.503906 -20.5 8.953125 -22.5 C 6.398438 -24.5 5.125 -27.101562 5.125 -30.3125 C 5.125 -34 6.53125 -36.867188 9.34375 -38.921875 C 12.164062 -40.972656 16.050781 -42 21 -42 C 26.050781 -42 30.085938 -40.878906 33.109375 -38.640625 C 36.140625 -36.398438 37.785156 -33.253906 38.046875 -29.203125 L 31.5 -29.203125 C 31.289062 -31.460938 30.273438 -33.1875 28.453125 -34.375 C 26.640625 -35.5625 24.179688 -36.15625 21.078125 -36.15625 C 18.128906 -36.15625 15.828125 -35.640625 14.171875 -34.609375 C 12.515625 -33.585938 11.6875 -32.15625 11.6875 -30.3125 C 11.6875 -28.570312 12.523438 -27.210938 14.203125 -26.234375 C 15.890625 -25.265625 18.863281 -24.359375 23.125 -23.515625 C 33.601562 -21.460938 38.84375 -17.203125 38.84375 -10.734375 C 38.84375 -7.210938 37.328125 -4.367188 34.296875 -2.203125 C 31.273438 -0.046875 27.238281 1.03125 22.1875 1.03125 Z M 22.1875 1.03125 "/></g></g></g></svg>